PathFileType	4	(X/Y/Z)	C:/Users/beibeiliu/ov580/test_trc/User2\sequence.15_training_dense_left.trc
DataRate	CameraRate	NumFrames	NumMarkers	Units	OrigDataRate	OrigDataStartFrame	OrigNumFrames
120	120	11	19	mm	120	205	273
Frame#	Time	ThumbCMC			ThumbMCP			ThumbIP			ThumbTip			IndexMCP			IndexPIP			IndexTip			MiddleMCP			MiddlePIP			MiddleTip			RingMCP			RingPIP			RingTip			PinkyMCP			PinkyPIP			PinkyTip			BackHand1			BackHand2			BackHand3	
		X0	Y0	Z0	X1	Y1	Z1	X2	Y2	Z2	X3	Y3	Z3	X4	Y4	Z4	X5	Y5	Z5	X6	Y6	Z6	X7	Y7	Z7	X8	Y8	Z8	X9	Y9	Z9	X10	Y10	Z10	X11	Y11	Z11	X12	Y12	Z12	X13	Y13	Z13	X14	Y14	Z14	X15	Y15	Z15	X16	Y16	Z16	X17	Y17	Z17	X18	Y18	Z18	
204	1.7	-185.904	32.6558	32.1459	-174.672	31.785	0.889733	-167.455	32.7629	-27.7243	-161.561	36.3734	-55.0225	-203.437	-3.2641	-41.3298	-174.799	-13.6567	-50.3867	-156.688	0.789954	-21.3993	-203.793	-28.2968	-34.2194	-170.074	-31.5815	-46.3491	-157.14	-17.304	-9.44381	-203.185	-44.7118	-25.0481	-172.665	-47.224	-37.843	-157.62	-32.6805	-12.2271	-210.148	-55.5667	6.41762	-217.027	-68.9939	-22.4939	-208.81	-77.5631	-48.4186	-217.587	-24.8519	32.8052	-218.268	-14.7209	64.7191	-220.118	12.1916	37.8045	
205	1.70833	-202.506	32.1997	28.7278	-189.971	31.8904	2.86266	-187.125	32.239	-32.974	-181.976	40.0692	-54.81	-205.738	-12.6935	-37.2939	-175.149	-7.43268	-53.6327	-162.287	8.0291	-23.8486	-196.858	-32.4921	-36.1498	-161.362	-26.85	-45.0576	-158.573	-6.0799	-8.48202	-187.448	-54.491	-26.6261	-158.814	-44.1982	-38.0272	-153.096	-20.0639	-14.837	-194.082	-62.4331	1.7269	-190.934	-76.1591	-24.0753	-182.518	-76.7613	-49.5132	-211.572	-37.1571	32.496	-212.72	-30.5648	66.0013	-225.011	-4.06231	37.2189	
206	1.71667	-214.069	21.4344	28.4879	-203.979	24.4022	0.956815	-201.684	25.005	-32.2668	-202.219	32.8555	-59.1073	-200.186	-22.0882	-37.6289	-174.026	-4.69359	-52.3007	-170.716	15.2778	-23.4616	-185.771	-34.9382	-37.3249	-154.979	-18.0037	-43.307	-160.888	3.5013	-10.8496	-171.364	-51.9789	-23.5029	-148.702	-32.8479	-38.5186	-149.973	-9.81503	-8.61776	-170.653	-60.0588	4.47702	-165.946	-72.482	-25.2584	-157.416	-72.8164	-54.0092	-199.98	-44.0994	31.9745	-204.855	-37.9523	67.5387	-224.51	-16.0802	33.468	
207	1.725	-221.036	9.86146	31.111	-214.535	15.0541	0.810734	-216.032	14.1188	-33.9992	-218.383	21.9288	-55.9616	-195.469	-26.9062	-40.4448	-176.757	-5.5092	-53.6115	-177.991	14.4328	-24.9746	-175.226	-36.4438	-37.1212	-153.853	-10.1562	-45.2892	-164.056	8.70041	-8.92707	-160.327	-44.1731	-26.9517	-139.45	-23.3103	-36.7709	-151.039	0.144682	-12.2114	-151.494	-58.2362	2.07538	-143.413	-67.9419	-23.6457	-133.949	-69.1718	-50.8832	-186.67	-47.1164	33.028	-194.668	-44.4356	64.059	-218.579	-28.6011	37.988	
208	1.73333	-222.219	3.73881	32.2267	-216.151	4.58211	1.12426	-222.197	6.6662	-33.7248	-225.189	11.2052	-58.7274	-190.233	-31.3343	-39.2639	-176.794	-5.08209	-54.4675	-181.398	12.3188	-24.4501	-170.837	-38.6021	-35.5736	-154.941	-7.13952	-45.6076	-167.471	7.98347	-7.40472	-150.512	-44.3477	-24.8154	-141.673	-14.3796	-38.26	-153.201	3.91169	-9.42665	-146.845	-53.1021	-1.64125	-134.874	-61.2345	-28.2429	-128.344	-65.8554	-47.1285	-178.565	-48.0012	34.5658	-185.702	-45.4889	65.6944	-211.258	-36.1068	37.6127	
209	1.74167	-220.281	-0.773853	32.1339	-217.487	3.13611	3.41963	-222.383	0.100167	-34.5111	-226.268	5.21661	-55.3516	-191.893	-34.7106	-37.3184	-174.897	-10.4854	-52.8406	-181.012	7.87431	-21.7682	-167.099	-41.0954	-35.8216	-152.889	-7.40716	-45.273	-170.1	7.82754	-11.5315	-151.668	-44.4282	-26.5595	-140.53	-16.9773	-41.0376	-154.25	2.67093	-10.1167	-139.801	-53.9445	-2.40958	-129.224	-61.5345	-26.7353	-124.203	-68.4943	-51.922	-173.82	-52.1426	33.6435	-183.883	-47.6999	60.6304	-208.935	-40.5633	39.3218	
210	1.75	-217.091	-2.32678	30.4667	-213.488	2.89762	2.46293	-218.251	0.71368	-31.3783	-226.216	6.38394	-55.6094	-193.008	-35.3648	-41.832	-175.527	-9.6543	-54.1274	-177.617	6.23294	-23.7001	-168.462	-42.3484	-38.0928	-154.413	-13.6304	-47.6593	-166.467	2.81315	-8.17289	-148.803	-48.0104	-27.0381	-140.696	-22.9351	-40.9373	-151.432	-2.02465	-12.3136	-140.493	-59.0496	-0.838217	-132.784	-66.6008	-27.9321	-130.708	-73.1737	-51.8389	-176.084	-53.6407	35.6472	-180.493	-46.4585	67.2639	-208.426	-39.4919	35.9159	
211	1.75833	-208.797	4.27847	33.3753	-206.171	5.01811	1.25337	-213.698	7.69366	-32.5394	-215.621	12.7586	-52.4307	-195.456	-33.2165	-41.608	-173.362	-14.6178	-53.7622	-172.158	6.43303	-21.1173	-172.165	-45.6519	-35.7895	-153.087	-18.844	-47.5268	-160.408	-1.08455	-7.85489	-153.314	-53.7029	-30.2215	-139.475	-27.1955	-40.6316	-148.133	-7.80686	-9.43572	-149.802	-66.0328	-4.77039	-144.927	-71.8636	-27.6723	-145.075	-79.2519	-51.5394	-176.247	-56.6962	34.0404	-181.143	-48.2869	64.3671	-212.294	-34.2357	37.8022	
212	1.76667	-199.378	17.0794	34.2987	-194.726	20.5995	5.77665	-198.638	17.9195	-29.5551	-197.831	21.8184	-51.4829	-197.53	-23.6397	-38.3082	-172.564	-12.1606	-53.7759	-161.963	7.24419	-23.3575	-183.751	-38.1683	-34.381	-151.197	-23.8372	-44.0839	-153.983	-4.29009	-8.18785	-168.01	-55.2741	-27.8931	-144.799	-34.9454	-39.7765	-142.61	-16.822	-12.3313	-164.7	-66.05	-1.08535	-165.782	-75.2691	-29.0641	-164.937	-81.9336	-52.7001	-184.468	-53.059	36.5332	-187.9	-45.3765	68.704	-206.966	-24.0563	40.3872	
213	1.775	-171.872	21.9269	43.3938	-166.295	28.0252	9.6185	-170.892	26.486	-23.6788	-170.522	31.994	-51.0778	-192.821	-7.18491	-35.7217	-165.879	-6.4659	-50.5997	-146.691	-2.00188	-21.5503	-185.665	-27.5246	-36.3812	-154.266	-26.0486	-44.201	-144.612	-16.3441	-5.09043	-183.096	-48.6563	-26.6852	-153.557	-42.0974	-39.8392	-141.701	-26.7415	-11.1166	-187.844	-59.5824	-3.08662	-194.196	-62.7622	-31.1761	-199.084	-67.1974	-56.5324	-196.556	-42.2462	37.0035	-193.776	-35.6049	68.9424	-201.149	-1.40803	46.4286	
214	1.78333	-148.096	22.3289	47.6832	-142.824	24.4496	13.6504	-143.005	28.8812	-19.3793	-137.886	32.0012	-41.4219	-180.755	13.3011	-30.8008	-158.721	-2.3102	-45.7698	-136.75	-4.38452	-15.8109	-186.45	-8.10481	-29.8308	-152.522	-20.9515	-40.612	-141.328	-17.2398	-3.12824	-192.599	-31.2145	-24.8095	-166.207	-40.3099	-39.2582	-147.486	-34.5728	-5.99301	-204.177	-39.807	-1.45661	-212.39	-39.1353	-31.2219	-218.34	-38.2034	-56.6672	-202.8	-18.8104	37.3726	-195.598	-17.4626	70.5288	-188.843	13.5823	50.6124	
